{"title":"The Searchers 1956 DVDrip English Klam","uid":6712654,"size":1683174754,"categoryP":"video","categoryS":"movies","magnet":"?xt=urn:btih:17275263a0544a79cacf12a37187481438c6f8e3&amp;dn=The+Searchers+1956+DVDrip+English+Klam&amp;tr=udp%3A%2F%2Ftracker.openbittorrent.com%3A80&amp;tr=udp%3A%2F%2Fopen.demonii.com%3A1337&amp;tr=udp%3A%2F%2Ftracker.coppersurfer.tk%3A6969&amp;tr=udp%3A%2F%2Fexodus.desync.com%3A6969","seeders":0,"leechers":1,"uploader":"Klambake","files":-1,"time":1317416458,"description":"With: John Wayne, Jeffrey Hunter and Vera Miles\n\nEthan Edwards (Wayne) is een ex-soldaat. Zijn familie wordt door de Comanches afgeslacht en zijn nicht door hen ontvoerd. Vastbesloten om haar te bevrijden, laat hij zich tijdens zijn zoektocht door geen enkele ontbering afleiden. Ethan vindt echter iets onverwachts: zijn eigen menselijkheid.\n\nAs a Civil War veteran spends years searching for a young niece captured by Indians, his motivation becomes increasingly questionable. \n\n------------------ Dutch Friends ------------------\nYou can find my Friends at: http://www.Film-Test.nl \n------ They got my dutch subs ----- and more ------\n\nGeneral:\n\nComplete name                    : The Searchers\\The Searchers.avi\nFormat                           : AVI\nFormat/Info                      : Audio Video Interleave\nFile size                        : 1.57 GiB\nDuration                         : 1h 53mn\nOverall bit rate                 : 1 969 Kbps\n\nVideo:\n\nFormat                           : MPEG-4 Visual\nFormat profile                   : Simple@L3\nFormat settings, BVOP            : No\nFormat settings, QPel            : No\nFormat settings, GMC             : No warppoints\nFormat settings, Matrix          : Default (H.263)\nCodec ID                         : XVID\nCodec ID/Hint                    : XviD\nDuration                         : 1h 53mn\nBit rate                         : 1 766 Kbps\nWidth                            : 704 pixels\nHeight                           : 396 pixels\nDisplay aspect ratio             : 16:9\nFrame rate                       : 25.000 fps\nColor space                      : YUV\nChroma subsampling               : 4:2:0\nBit depth                        : 8 bits\nScan type                        : Progressive\nBits/(Pixel*Frame)               : 0.253\nStream size                      : 1.41 GiB (90%)\nWriting library                  : XviD 1.1.2 (UTC 2006-11-01)\n\nAudio:\n\nFormat                           : AC-3\nFormat/Info                      : Audio Coding 3\nMode extension                   : CM (complete main)\nCodec ID                         : 2000\nDuration                         : 1h 53mn\nBit rate mode                    : Constant\nBit rate                         : 192 Kbps\nChannel(s)                       : 1 channel\nChannel positions                : Front: C\nSampling rate                    : 48.0 KHz\nBit depth                        : 16 bits\nStream size                      : 156 MiB (10%)\nAlignment                        : Aligned on interleaves\nInterleave, duration             : 32 ms (0.80 video frame)\nInterleave, preload duration     : 384 ms\n\n\n","torrent":{"xt":"urn:btih:17275263a0544a79cacf12a37187481438c6f8e3","amp;dn":"The+Searchers+1956+DVDrip+English+Klam","amp;tr":["udp%3A%2F%2Ftracker.openbittorrent.com%3A80","udp%3A%2F%2Fopen.demonii.com%3A1337","udp%3A%2F%2Ftracker.coppersurfer.tk%3A6969","udp%3A%2F%2Fexodus.desync.com%3A6969"],"infoHash":"17275263a0544a79cacf12a37187481438c6f8e3","infoHashBuffer":{"type":"Buffer","data":[23,39,82,99,160,84,74,121,202,207,18,163,113,135,72,20,56,198,248,227]},"announce":[],"urlList":[]}}